<svg xmlns="http://www.w3.org/2000/svg" viewBox="0 0 400 400"><defs><style>.cls-1{fill:#020202;}.cls-2{fill:#040404;}.cls-3{fill:#151513;}.cls-4{fill:#242424;}.cls-5{fill:#262626;}.cls-6{fill:#1f1e1b;}.cls-7{fill:#f2dc7d;}.cls-8{fill:#e4e1d0;}.cls-9{fill:#fbe47f;}.cls-10{fill:#cdcbbd;}.cls-11{fill:#0e0d0d;}.cls-12{fill:#3e3e3b;}.cls-13{fill:#d4d2c5;}.cls-14{fill:#999890;}.cls-15{fill:#d6d4c6;}.cls-16{fill:#0b0b0b;}.cls-17{fill:#171612;}.cls-18{fill:#131313;}.cls-19{fill:#141413;}.cls-20{fill:#161616;}.cls-21{fill:#1e1d1d;}.cls-22{fill:#1e1e1d;}.cls-23{fill:#121211;}.cls-24{fill:#0d0d0c;}.cls-25{fill:#1c1c1b;}.cls-26{fill:#090806;}.cls-27{fill:#1a1918;}.cls-28{fill:#454443;}.cls-29{fill:#bebcb0;}.cls-30{fill:#030303;}.cls-31{fill:#222221;}.cls-32{fill:#343433;}.cls-33{fill:#121212;}.cls-34{fill:#1a1a1a;}.cls-35{fill:#252524;}.cls-36{fill:#393937;}.cls-37{fill:#40403d;}.cls-38{fill:#201f1e;}.cls-39{fill:#353433;}.cls-40{fill:#292928;}.cls-41{fill:#41403f;}.cls-42{fill:#1c1c1c;}.cls-43{fill:#282827;}.cls-44{fill:#5b5b58;}.cls-45{fill:#0c0b0b;}.cls-46{fill:#343432;}.cls-47{fill:#2c2c2b;}.cls-48{fill:#535351;}.cls-49{fill:#1b1a15;}.cls-50{fill:#070707;}.cls-51{fill:#0e0e0e;}.cls-52{fill:#2b2b2a;}.cls-53{fill:#0a0a09;}.cls-54{fill:#20201f;}.cls-55{fill:#353533;}.cls-56{fill:#1d1d1c;}.cls-57{fill:#1d1d1d;}.cls-58{fill:#2b2b29;}.cls-59{fill:#d9c674;}.cls-60{fill:#2e2d2c;}.cls-61{fill:#0c0c0b;}.cls-62{fill:#bcbaae;}.cls-63{fill:#d5d2c3;}.cls-64{fill:#c4c2b5;}.cls-65{fill:#b6b4a8;}.cls-66{fill:#c7c5b8;}.cls-67{fill:#a3a198;}.cls-68{fill:#c6c5be;}.cls-69{fill:#a19f96;}.cls-70{fill:#3c3c3b;}.cls-71{fill:#686866;}.cls-72{fill:#93928b;}.cls-73{fill:#8c8b88;}.cls-74{fill:#a6a5a0;}.cls-75{fill:#e7e5dd;}.cls-76{fill:#373635;}.cls-77{fill:#969591;}.cls-78{fill:#d6d5cd;}.cls-79{fill:#4a4a49;}.cls-80{fill:#f8f6ec;}.cls-81{fill:#d0cfc7;}.cls-82{fill:#d0cec0;}.cls-83{fill:#d8d6cf;}.cls-84{fill:#9c9a93;}.cls-85{fill:#bdbcb7;}.cls-86{fill:#f2f1e8;}.cls-87{fill:#d1d0ca;}.cls-88{fill:#cfccbf;}.cls-89{fill:#0f0f0e;}.cls-90{fill:#b1afa4;}.cls-91{fill:#232221;}.cls-92{fill:#c3c1b5;}.cls-93{fill:#e3e2d9;}.cls-94{fill:#2e2e2d;}.cls-95{fill:#d3d1ca;}.cls-96{fill:#d2d1c9;}.cls-97{fill:#656461;}.cls-98{fill:#080808;}.cls-99{fill:#d6d4c7;}.cls-100{fill:#adaba1;}.cls-101{fill:#f5f5f5;}.cls-102{fill:#f1f1f1;}</style></defs><g id="vectors"><g id="owl-vector"><path class="cls-1" d="M166.41,338.78c-2.83-4-6.63-5.72-11.33-4s-7.45-1.4-8.35-4.31c-2.18-7-3.31-11.85-12.88-14.45-6.79-1.85-1.42-11.05,4.08-15.53,0,0,.87.14.87.14l.08-.85,4.32-1.91a1.21,1.21,0,0,0,1.15.67l3.22,2.57c-3.87,2-9.84,4-8.71,8.51s5.89-.37,9.17-.15c4.6.3,4.63,2.23,4.2,5.93-.62,5.39-2.47,13.51,7.64,5.76.8-.62,3.13.64,4.73,1.1,3.56,1-.36,8.52,4.68,6.74,4.07-1.43,2.21-7.06,2.42-10.9s-.63-8.12.28-11.88c3.39-14.07-3.46-13.67-13.24-9.7l-3.33-3.4c4.42-4.75-.1-6.84-3-9-16.55-12.43-30-27.22-36.75-47.08-2.15-6.32-6.65-5.3-11.69-4.72-36,4.11-66.21-7.13-90.33-34.06,3.35-10.08,16.31-21-2.51-29.18v-2.66a21.1,21.1,0,0,1,10.28-7.55c4.56-1.46,7.49-3.89,6.6-9.69-.69-4.44-4.72-11,.5-13.25s10.5,2.74,14.73,6.67l-.06,2.88c-9.57,2.06-1.06,13.67-9.57,17.1-7.95,3.21-11.82,8.75-3.6,16.54a4.87,4.87,0,0,1-1.4,8c-9.94,5.07-5,10.26-.29,15.15,7.74,8,16.2,15,27.5,17.66,7.57,4.92,16.21,6.11,24.94,7l5.18.44,3.55-.39,15.12.06,4.8,0c4.42-1.73,3.5-5.29,3-8.69.37-1.17.72-2.35,1.16-3.49a3.33,3.33,0,0,1,1.2.24c-.11,6.25,5.2,10.07,6.93,15.87C130.7,261,153,281.4,180.34,293c44.76,19,84.62,7.23,117.37-28.24l2,2.36c-.72,14.27,1.65,27.11,16.17,34.33q1.65,1.62,3.29,3.25c-12.16,7.08-16.87,5.43-21.16-9.45-3-10.54-5.51-12-15-4.54-26.07,20.52-57,22.76-88.42,18-8.28-1.26-10,.82-11,7.42-1.27,8.24-3.42,16.18-9.15,22.66Z"/><path class="cls-2" d="M43.19,145.49l.06-2.88c15.73,2.24,31.41,5,47.21,6.55,8.19.82,15.39-1.21,17.93-11.32,5.4-21.54,21.17-37.33,33-55.28,1.77-2.69,5.33-4.62,8.47-6C195,57.16,238.7,58.89,280.44,86.2c11.51,7.52,20.4,17.47,24.67,30.28,5.05,15.17,13.36,21.64,29.2,15.09l6.1.4h0c0,.74,0,1.49-.08,2.24-9.49,7.44-22.64,3.93-32.1,10-5.77,3.67-4.64,1.46-5.49-2.56-8.45-40.15-32.49-63.23-74.17-69.74-53.12-8.29-103.33,22.13-114,72.45-2.15,10.14-3.72,12-14.19,10.46C81.27,151.93,61.55,153.05,43.19,145.49Z"/><path class="cls-2" d="M359.45,116.13c8-6.06,15.84-11.7,15.51,5.5,0,2.24.67,4.46,3.78,4,18.26-3,9.24,10.51,7.5,15.1-2.53,6.68-2.66,11.59-.51,18.34,5.8,18.15-12.75,43.83-37.52,47.48-16.62,2.45-21.43,10.16-26.14,24.13-5.09,15.09-4.53,21.71,13.25,25,20.06,3.71,22,9.15,13.53,22.37l-3.25-3.25c1.35-4.77.49-8.6-4.62-10.61-11.26-4.42-22.5-8.93-35-7.43-.88-.06-1.77-.1-2.66-.11,7.74-15.23,14.17-31,18-47.63,2.09-9.12,2.75-10.09,10-8.33a14.58,14.58,0,0,0,6.6-.1A58.07,58.07,0,0,0,375,172.77c6.5-11.18-5.48-25.65,2.69-38,.22-.33-.82-2.09-1.11-2.05-12.65,1.83-9.51-8.78-12.05-14.89Z"/><path class="cls-3" d="M345.6,274.75l3.25,3.25c-6.22,12.9-19.08,18.55-29.66,26.71q-1.63-1.63-3.29-3.25c3.61-6.76,1.11-21,16.62-13.43.28.14,2.31-1.95,2.12-2.36C328.41,272.2,342.24,278.62,345.6,274.75Z"/><path class="cls-4" d="M348.28,123.54a12,12,0,0,1,8-5.19l3,3.06-10.58,8-2.85,2a2.17,2.17,0,0,1-2.1.82l-3.33-.26h0c-.14-1.07-.29-2.14-.44-3.21l-.17.14,3.29-2.26h0C345.39,126.56,347.38,126,348.28,123.54Z"/><path d="M359.27,121.41l-3-3.06,3.17-2.22,5,1.68Z"/><path class="cls-5" d="M340,128.76c.15,1.07.3,2.14.44,3.21l-6.1-.4Z"/><path class="cls-5" d="M348.28,123.54c-.9,2.41-2.89,3-5.21,3.11Z"/><path class="cls-5" d="M343.09,126.64l-3.29,2.26Z"/><path class="cls-6" d="M147.57,301.13l-3.23-2.57a3.05,3.05,0,0,0-.28-1.49l11.35-3.93,3.33,3.4Z"/><path class="cls-7" d="M144.06,297.07a3.05,3.05,0,0,1,.28,1.49,1.21,1.21,0,0,1-1.14-.67s0-.86,0-.86Z"/><path class="cls-7" d="M138.88,299.8l-.08.85s-.88-.13-.87-.14.09-.88.09-.88Z"/><path class="cls-8" d="M359.27,121.41l5.22-3.6c2.54,6.11-.6,16.72,12.05,14.89.29,0,1.33,1.72,1.11,2.05-8.17,12.37,3.81,26.84-2.69,38a58.07,58.07,0,0,1-37.1,27.77,14.58,14.58,0,0,1-6.6.1c-7.25-1.76-7.91-.79-10,8.33-3.81,16.64-10.24,32.4-18,47.63L301.66,259l-4,5.61,0,.19C265,300.24,225.1,312,180.34,293,153,281.4,130.7,261,121.72,231c-1.73-5.8-7-9.62-6.93-15.87a3.33,3.33,0,0,0-1.2-.24c-.44,1.14-.79,2.32-1.16,3.49-5.59.41-13,4.26-12.53-6.64,11.76-3.92,4.72-7.53-.2-11.17-3.68-3.46,15.24-6.84,0-10.33-5.16-3.6,6.74-13.18-5.16-14.41l2.21-4.58,2.9-2a3.46,3.46,0,0,0,2.38-.6,2.28,2.28,0,0,0,2.45-2.91c-.13-.66-1.57-1.08-2.41-1.6l-2.6.33-2.75,2L86.5,172l-2.94-2.5a5.92,5.92,0,0,0,.86-1c.17-.28.28-.9.18-1-6.49-3.74-13.23-.55-19.87-.67-5-.1-9.63.78-13.65,3.92-4.64,1.35-6.73,4-4.61,8.83,1.49,4.38-4.36,9.74,1.84,13.48,1.7,3.2-1.31,5.23-2,7.85-1.23,3.06-1.68,5.87,2.33,7.28,3.8,2.46,13.62-3.28,11,7.92l-3.84,3.73c-11.3-2.63-19.76-9.69-27.5-17.66-4.73-4.89-9.65-10.08.29-15.15a4.87,4.87,0,0,0,1.4-8c-8.22-7.79-4.35-13.33,3.6-16.54,8.51-3.43,0-15,9.57-17.1,18.36,7.56,38.08,6.44,57.18,9.29,10.47,1.56,12-.32,14.19-10.46,10.68-50.32,60.89-80.74,114-72.45,41.68,6.51,65.72,29.59,74.17,69.74.85,4-.28,6.23,5.49,2.56,9.46-6,22.61-2.52,32.1-10l3.41-2a2.17,2.17,0,0,0,2.1-.82l2.85-2ZM270.77,111l-2.6-.44c-1.27-3.59-4.56-2.56-7.17-3.08a21.31,21.31,0,0,0-20.06.3l-4.56.89c-3.36.61-6.27,1.91-8,5a2.71,2.71,0,0,0-1.11,2.18c-8.36-8.31-11.61-.4-15.69,4.86L209,123.78l.07-.09-3.12,2.67a3.93,3.93,0,0,0-1.6.1l-3.1-2c-6.14-3.85-11.75-19-18.93-.88-5.4-2.27-9.44-7.43-15.95-7.32-8.26-1.86-16.48-3-24.24,1.77a2,2,0,0,0-2.37.86,11,11,0,0,0-7.73,7.86l-1,2.39L129.15,132l-.53,2.53c-6.26,10.27-5.72,20.93-1.86,31.78.69,3.13,1.17,6.37,4.36,8.19l1,2.42c.8,2.56,1.6,5.12,4.95,5.37-.19,2,.69,2.88,2.71,2.59.14,3.42,2.85,4.08,5.37,4.94l2.43,1,2.82,1.86.92.61,1.11-.06,5.93,2.08c9.66,3.08,18.57.79,27.19-3.67,3.62-.5,7-3.28,10.87-1.34,3.68,2.54.84,14.76,11.19,7.4,1-.16,1.36-.71,1.12-1.66q1.49-4.23,3-8.46l5.56.14c3.87,3.32,8.5,4.58,13.5,4.83l15.89.1c4.08-.47,8.25-.73,10.9-4.56,2.25-.26,4.74-.12,5.27-3.18,1.82.07,3.14-.35,2.57-2.6,2.56,1,3.73-.28,4.23-2.6,2.7-1.1,5-2.59,6-5.52q1.41-2.55,2.8-5.1l1.37-2.38,1.49-2.94.83-2.46c3.33-3.89,4.14-8.58,4.36-13.45.2-8,4.19-16.42-2.34-23.79l-.23-2.57c-1.09-4.07-3.87-6.47-7.84-7.68l-2.47-.5C273.77,111.17,272.42,110.89,270.77,111Zm97.11,50.4c3.13-2.26,2-5.21,1.31-8.08l-5.41-10.73c.82-2.26,1.39-4.41-2-4.95a1.8,1.8,0,0,0-2.15-.6c-1.19-1.76-2.33-1.66-3.44.08a2.25,2.25,0,0,0-2.29.44l-3.74,1.86L340.45,143,327,145.6c-5.63-1-9.8,1.39-12.76,5.89-.14.22,2.83,2.44,4.35,3.73-4.75,7.12-.19,9.52,5.79,11.2-.07,5.54,8.44,9.13,3.4,16.37-.86,1.24,2.12,7.4,9.25,6.84,13.39-1,27.66-12.21,29.5-25.89ZM266.24,238.23c2.83-2.78,3.14-6.34,3-10,0-.15-1.86-.64-2.25-.3a11.22,11.22,0,0,0-3.63,10.16l.54,2.12ZM280,243.47c-1.61-2.23-2.34-4-2.92-3.93-3,.24-4.35,2.65-5.3,5.12-.65,1.68-.76,4,1.91,3.14C276,247.05,277.9,245,280,243.47Z"/><path class="cls-9" d="M345.6,274.75c-3.36,3.87-17.19-2.55-11,10.92.19.41-1.84,2.5-2.12,2.36-15.51-7.53-13,6.67-16.62,13.43-14.52-7.22-16.89-20.06-16.17-34.33.5-.77,1-1.55,1.51-2.32,1.26-1.9,2.53-3.79,3.79-5.68a2.94,2.94,0,0,0,.91-2.42c12.54-1.5,23.78,3,35,7.43C346.09,266.15,347,270,345.6,274.75Z"/><path class="cls-7" d="M147.57,301.13l11.17-4.59c9.78-4,16.63-4.37,13.24,9.7-.91,3.76-.06,7.92-.28,11.88s1.65,9.47-2.42,10.9c-5,1.78-1.12-5.7-4.68-6.74-1.6-.46-3.93-1.72-4.73-1.1-10.11,7.75-8.26-.37-7.64-5.76.43-3.7.4-5.63-4.2-5.93-3.28-.22-8.07,4.59-9.17.15S143.7,303.15,147.57,301.13Z"/><path class="cls-10" d="M55.83,219.9l3.84-3.73c3.95,2.66,9.41-.59,13,3.3,1.66,3.59,5.25,2.46,8.06,3.22v4.2C72,226,63.4,224.82,55.83,219.9Z"/><path class="cls-11" d="M99.9,211.69c-.51,10.9,6.94,7.05,12.53,6.64.49,3.4,1.41,7-3,8.69a6.82,6.82,0,0,0,.49-2.41c1-2.52-.36-2.68-2.29-2.32l-10.85-.36-.1.13q-1.08-4-2.18-8l2.22-2.62c.6-.07,1.2-.12,1.8-.17A1.92,1.92,0,0,0,99.9,211.69Z"/><path class="cls-12" d="M89.5,226.94l-3.55.39-2.84-5,3-2.94c3,2.7,6.86,2.36,10.52,2.67l.1-.13a4.14,4.14,0,0,1-.27,2.55Z"/><path class="cls-13" d="M89.5,226.94l7-2.46c2.77.64,6.14-.62,8.12,2.52Z"/><path class="cls-14" d="M104.62,227c-2-3.14-5.35-1.88-8.12-2.52a4.14,4.14,0,0,0,.27-2.55l10.85.36,2.29,2.32a6.82,6.82,0,0,1-.49,2.41Z"/><path class="cls-15" d="M83.11,222.33l2.84,5-5.18-.44v-4.2l1.13-.42Z"/><path d="M301.24,264.81c-.51.77-1,1.55-1.51,2.32l-2-2.36,0-.19Z"/><path class="cls-5" d="M343.74,132.23l-3.41,2c0-.75.07-1.5.08-2.24Z"/><path d="M305.94,256.71a2.94,2.94,0,0,1-.91,2.42l-3.37-.16,1.62-2.37C304.17,256.61,305.06,256.65,305.94,256.71Z"/><path class="cls-5" d="M348.69,129.39l-2.85,2Z"/><path class="cls-16" d="M366.55,163.74c-1.84,13.68-16.11,24.84-29.5,25.89-7.13.56-10.11-5.6-9.25-6.84,5-7.24-3.47-10.83-3.4-16.37.94-1.17,1.87-2.35,2.81-3.53l5,3.78c.91,1.43,2.11,1.42,2.71,0,.89-2.12-.6-3-2.47-3.3-1-2.6-3.46-2-5.46-2.37l.18.21.29-2.8,2.11-2.25c2.26-.29,4.8-.11,5.38-3.18a21,21,0,0,1,.37-2.38l1.24,0,1.25,0-.12-.09c.05.94.1,1.88.16,2.81.15,2.58.32,6.66,3.93,3.37,3.18-2.91,7.34-8-1.08-10.75l-.24-2.89,9.68-3.65,3.72.53-.05,0c.06,1,.12,2,.19,3-.08,4.27-3.58,10.29,5.22,10l2.68.45-.27-.21c.21.87.41,1.74.61,2.61-1,2,1.38,6.17-3.66,5.49-.91-2.18-.71-5.32-4.4-5.12-1.92.11-1.28,1.18-1,2.41.86,3.41,3.5,2.33,5.7,2.43.3,4.33,2.1,5.61,5.89,2.84l.88-.11Zm-17.69-3.14.13.06-1.77-1.7-.84,2.12q-.19,4-.37,7.95l-1.37,1.07c.26-.06.63,0,.76-.19a4.44,4.44,0,0,0,.46-1c2.72-.18,2.76-2.18,2.86-4.13C350.63,163.42,351.64,162.07,348.86,160.6Zm4.8,16.31c2.48-1,3.14-2.74.86-4.3-1.48-1-3-.1-3.1,2.06C351.45,176.11,351.6,177.44,353.66,176.91Zm-14.63,3c-.16-2.21-1.81-3.35-3.52-2.79a5,5,0,0,0-2.95,3.61c0,1.22,1.69,3.45,2.81,3.56C338.06,184.52,338.78,182.16,339,179.87Zm9.35-1.87c-1.94-1.19-3.19-1.95-4.44-2.7a21.1,21.1,0,0,0-.85,4.76c0,.72,1.33,1.4,2.05,2.1Zm-5.67-13.33-.8-2.1c-.27.28-.73.54-.76.84a11.14,11.14,0,0,0,.14,2.07C341.76,165.23,342.23,165,342.71,164.67Z"/><path class="cls-17" d="M196.38,190.26c-3.92-1.94-7.25.84-10.87,1.34-.11-1.25-.23-2.5-.35-3.75,2.47-2.39,7.07-4.8,7.05-7.17-.16-16.18,10.2-13.48,20.21-11.87l-3,2.13c-15.66-.18-11.54,10.47-10.76,19.28A13.58,13.58,0,0,0,196.38,190.26Z"/><path class="cls-18" d="M72.71,219.47c-3.63-3.89-9.09-.64-13-3.3,2.63-11.2-7.19-5.46-11-7.92l.35-3c1.9.35,4,1.72,5.3-1l2.56-3.36h1l.95,0c.71,2.92,1.61,5.61,5.61,4.58,3.82-1.2,1.82-4.84,3.06-7.12l0,0,2.66-.2c.16,1,.31,1.93.46,2.89,3.14,4.6,6.78,9.12,2.41,14.91l.56,2.83Zm-5.23-7.73,2-1.24-1.38-1.3-1.23,2.09-1.66,1.17,1.35,1.1Z"/><path class="cls-19" d="M182.28,123.62c7.18-18.14,12.79-3,18.93.88l3.1,2a3.93,3.93,0,0,1,1.6-.1l3.12-2.67-.07.09,2.94.2,0,0,.27,3.17-2.54,2.33-7,.35c-9.82-5.8-9.82-5.8-20.16-.93C182.45,127.17,182.37,125.39,182.28,123.62Z"/><path class="cls-20" d="M211.57,120.71c4.08-5.26,7.33-13.17,15.69-4.86l1-.12,1,.24.71.47.76-.37c-2.2,9.26-8.74,9.7-16.39,7.91-.81,0-1.62,0-2.43,0l0,0Z"/><path class="cls-20" d="M126.76,166.31c-3.86-10.85-4.4-21.51,1.86-31.78l1.16-.07,1.16.09c-3.39,9.35-1.46,19-1.61,28.52Z"/><path class="cls-21" d="M185.16,187.85l.35,3.75c-8.62,4.46-17.53,6.75-27.19,3.67l-5.93-2.08-1.11.06-.92-.61.34-3.3L161.15,191c4.48,2.91,8.89,3.07,13.24-.26l2.73-1c2.27.47,4.2.09,5.45-2.07l1.3,0Z"/><path class="cls-22" d="M196.38,190.26a13.58,13.58,0,0,1,2.3,0c7.32,5.82,7.21-3.16,10.58-5.21l2.39,2.53c-1,2.82-2,5.64-3,8.45a1.21,1.21,0,0,0-1.13,1.67C197.22,205,200.06,192.8,196.38,190.26Z"/><path class="cls-23" d="M64.73,166.89c6.64.12,13.38-3.07,19.87.67.1.06,0,.68-.18,1a5.92,5.92,0,0,1-.86,1c-4.31,1-10.14.33-8.78,7.69l-2.73.1c-4.06-.89.84-10.26-7.16-7.41Z"/><path class="cls-24" d="M99.74,190.19c15.2,3.49-3.72,6.87,0,10.33l-2.64,3C94.18,200,90.45,201,86.8,201.56l-.73-.69,3.26-3c7.1,1.65,7.37-2.17,6-7.33Z"/><path class="cls-25" d="M86.5,172l10.26-5.56,2.75-2,2.6-.33,0,4.51a3.46,3.46,0,0,1-2.38.6l-2.9,2-2.21,4.58c-.28,1.57-.57,3.15-.85,4.73-2.09-2.19-4-4.74-7.67-3.51l-.89-.43a6,6,0,0,0,.88-2.36A12.08,12.08,0,0,1,86.5,172Z"/><path class="cls-26" d="M211.65,187.54,209.26,185a18.52,18.52,0,0,1,5.18-10.7h1.16l1.15.07c.42,2.71-4.94,5.52.14,8.15l3.13,2.26-.28.82-2.53,2.08Z"/><path class="cls-27" d="M318.61,155.22c-1.52-1.29-4.49-3.51-4.35-3.73,3-4.5,7.13-6.87,12.76-5.89l-.78,3c-4.31,2-4.65,5.87-4.81,9.85Z"/><path class="cls-28" d="M240.94,107.75a21.31,21.31,0,0,1,20.06-.3l-3.5,2.77-13.61,0Z"/><path class="cls-29" d="M86.5,172a12.08,12.08,0,0,0-.45,2.23l-3.32,2.62c-2.61,1.13-5.21,2.16-8,.34-1.36-7.36,4.47-6.68,8.78-7.69Z"/><path class="cls-30" d="M142.09,118.07c7.76-4.82,16-3.63,24.24-1.77a9.82,9.82,0,0,1,.07,2.36c-8.05.54-16.31-1.23-24.1,2.13Z"/><path class="cls-31" d="M64.73,166.89l.16,3c-1.44,2.06-3.56,3.93-2,6.85l-2.94.28c-1.22-5.8-4.83-5-8.82-3.14v-3C55.1,167.67,59.77,166.79,64.73,166.89Z"/><path class="cls-32" d="M166.4,118.66a9.82,9.82,0,0,0-.07-2.36c6.51-.11,10.55,5,15.95,7.32.09,1.77.17,3.55.26,5.32Z"/><path class="cls-33" d="M284.11,124c6.53,7.37,2.54,15.76,2.34,23.79a18.07,18.07,0,0,0-2.21.05c-1-8,1.46-16.15-1.79-23.93l.84-.11Z"/><path class="cls-33" d="M326.24,148.58l.78-3L340.45,143l.24,2.89c-.34,1.47-.69,2.94-1,4.4-.66,0-1.32.1-2,.17l.12.09-3.63-2.21-1.84,4.81-2.6-2.8-3.51-1.9Z"/><path class="cls-34" d="M93.73,180.51c.28-1.58.57-3.16.85-4.73,11.9,1.23,0,10.81,5.16,14.41l-4.43.4C94.78,187.23,94.26,183.87,93.73,180.51Z"/><path class="cls-35" d="M97.06,203.51l2.64-3c4.92,3.64,12,7.25.2,11.17a1.92,1.92,0,0,1-1.39-.39c-.32-.77-.64-1.53-1-2.29Z"/><path class="cls-36" d="M318.61,155.22l2.82,3.21,5.73,2.77L327,161a2,2,0,0,1,.23,1.9c-.94,1.18-1.87,2.36-2.81,3.53C318.42,164.74,313.86,162.34,318.61,155.22Z"/><path class="cls-37" d="M280,243.47c-2.12,1.52-4,3.58-6.31,4.33-2.67.87-2.56-1.46-1.91-3.14.95-2.47,2.28-4.88,5.3-5.12C277.68,239.5,278.41,241.24,280,243.47Z"/><path class="cls-38" d="M217.21,187.68l2.53-2.08,11,4.42a17.25,17.25,0,0,1,0,2.49C225.71,192.26,221.08,191,217.21,187.68Z"/><path class="cls-39" d="M46.35,201c.65-2.62,3.66-4.65,2-7.85l2.8-2.36c.7,0,1.4-.08,2.11-.09l3.34,2.52c.06.83.13,1.66.21,2.48L54,198.26,49,201A17.35,17.35,0,0,1,46.35,201Z"/><path class="cls-40" d="M363.78,142.56l5.41,10.73a4.93,4.93,0,0,1-1.95-.12l-2.9.12-2.72-.11.27.21c.6-2.22-1.17-2.71-2.58-3.46a11.47,11.47,0,0,1,.32-2.18c.7-1.73,1.39-3.47,2.09-5.21Z"/><path class="cls-41" d="M257.5,188.05c-2.65,3.83-6.82,4.09-10.9,4.56,0-1,0-1.94.05-2.91,2.78-3.65,7.5-1.95,10.91-3.88A3.17,3.17,0,0,1,257.5,188.05Z"/><path class="cls-42" d="M263.35,238.11A11.22,11.22,0,0,1,267,228c.39-.34,2.25.15,2.25.3.15,3.64-.16,7.2-3,10Z"/><path class="cls-43" d="M284.24,147.87a18.07,18.07,0,0,1,2.21-.05c-.22,4.87-1,9.56-4.36,13.45l-2.93-.07Q281.7,154.54,284.24,147.87Z"/><path class="cls-33" d="M51.11,190.76l-2.8,2.36c-6.2-3.74-.35-9.1-1.84-13.48h1l1,.17c.92,1.73,1.85,3.45,2.78,5.18a6.73,6.73,0,0,0-.4,1.83c-1.8,1.39-2.53,2.61.52,3.24Z"/><path class="cls-44" d="M228.37,113.67c1.74-3.12,4.65-4.42,8-5l2.43,2.22-8.05,5.21-.76.37-.71-.47C229,115.21,228.67,114.44,228.37,113.67Z"/><path class="cls-45" d="M246.65,189.7c0,1,0,1.94-.05,2.91l-15.89-.1a17.25,17.25,0,0,0,0-2.49Z"/><path class="cls-40" d="M126.76,166.31l2.57-3.24q1.47,3,3,6l1.82,3a4,4,0,0,1-.22,2.44l-2.77-.05C127.93,172.68,127.45,169.44,126.76,166.31Z"/><path d="M361.72,142.54c-.7,1.74-1.39,3.48-2.09,5.21-1.88-2.29,2.16-6.92-3.16-7.84a14,14,0,0,0-2.67,0l.05,0a15.88,15.88,0,0,1,0-2.39,2.25,2.25,0,0,1,2.29-.44l3.44-.08a1.8,1.8,0,0,1,2.15.6Z"/><path class="cls-46" d="M132,126.79a11,11,0,0,1,7.73-7.86c0,1,0,2.08.05,3.11l-4.83,4.74Z"/><path class="cls-47" d="M257.5,110.22l3.5-2.77c2.61.52,5.9-.51,7.17,3.08a2.25,2.25,0,0,1,.11,2.12Z"/><path class="cls-46" d="M276,113.78c4,1.21,6.75,3.61,7.84,7.68l-2.76,0a7.16,7.16,0,0,1-5-5A4.73,4.73,0,0,1,276,113.78Z"/><path class="cls-48" d="M275.6,174.15c-1,2.93-3.33,4.42-6,5.52l0,.15c.17-2.65.94-4.88,4-5.42l1-.38Z"/><path class="cls-49" d="M301.66,259l3.37.16c-1.26,1.89-2.53,3.78-3.79,5.68l-3.58-.23Z"/><path d="M48.51,179.81l-1-.17h-1c-2.12-4.82,0-7.48,4.61-8.83,0,1,0,2,0,3l.33.83c-3.24.37-2.46,2.89-2.67,4.89Z"/><path class="cls-50" d="M367.24,153.17a4.93,4.93,0,0,0,1.95.12c.68,2.87,1.82,5.82-1.31,8.08l-2.78-.22a3.34,3.34,0,0,1,0-2.41Z"/><path class="cls-51" d="M275.6,174.15l-1-.13-1,.38a4.91,4.91,0,0,1,2.81-5.27l1-.1,1,0Z"/><path class="cls-52" d="M145.11,189.82c-2.52-.86-5.23-1.52-5.37-4.94l-.25.22c2.41-.27,4.5.1,5.48,2.69A3.79,3.79,0,0,1,145.11,189.82Z"/><path class="cls-53" d="M238.81,110.86l-2.43-2.22,4.56-.89,2.95,2.49Z"/><path class="cls-42" d="M46.35,201a17.35,17.35,0,0,0,2.6,0c0,1.42,0,2.84.08,4.27l-.35,3C44.67,206.84,45.12,204,46.35,201Z"/><path class="cls-52" d="M137,182.28c-3.35-.24-4.15-2.8-4.95-5.36l1-.07,1,.21a9,9,0,0,1,2.56.55l.12,4.89Z"/><path class="cls-54" d="M152.39,193.19l5.93,2.08Z"/><path class="cls-55" d="M102.07,168.57l0-4.51c.84.52,2.28.94,2.41,1.6A2.28,2.28,0,0,1,102.07,168.57Z"/><path class="cls-56" d="M281.26,163.73l-1.49,2.94-3.09-.16c.61-.94,1.21-1.88,1.82-2.81Z"/><path class="cls-48" d="M269.55,179.82l0-.15c-.5,2.32-1.67,3.57-4.23,2.6l.16.23C265.81,180.07,267.5,179.68,269.55,179.82Z"/><path class="cls-35" d="M361.72,142.54l0-4.93c3.42.54,2.85,2.69,2,4.95Z"/><path class="cls-57" d="M129.15,132l1.89-2.82,1.29-.17,1.28.21-2,2.74C130.78,132,130,132,129.15,132Z"/><path class="cls-54" d="M150.7,189.34l-.34,3.3-2.82-1.86c0-.92,0-1.84.07-2.76Z"/><path class="cls-22" d="M257.5,188.05a3.17,3.17,0,0,0,.06-2.23l2.54-1.41,2.8.72-.13-.26C262.24,187.93,259.75,187.79,257.5,188.05Z"/><path class="cls-58" d="M265.34,182.27c.57,2.25-.75,2.67-2.57,2.6l.13.26c0-.91,0-1.81,0-2.72l1.29-.07,1.27.16Z"/><path d="M147.61,188c0,.92-.05,1.84-.07,2.76l-2.43-1a3.79,3.79,0,0,0-.14-2Z"/><path class="cls-51" d="M139.74,184.88c-2,.29-2.9-.6-2.71-2.6l-.21.22c2.33-.58,2.81.7,2.67,2.6Z"/><path d="M281.26,163.73l-2.76,0a4.75,4.75,0,0,1,.66-2.5l2.93.07Z"/><path class="cls-35" d="M353.87,137.53a15.88,15.88,0,0,0,0,2.39l-3.72-.53Z"/><path d="M365.1,161.15l2.78.22c-.44.79-.88,1.58-1.33,2.37h-.89l-.88.11Z"/><path class="cls-55" d="M99.51,164.39l-2.75,2Z"/><path class="cls-35" d="M359.6,137l-3.44.08C357.27,135.35,358.41,135.25,359.6,137Z"/><path class="cls-59" d="M207.57,197.66A1.21,1.21,0,0,1,208.7,196,1.21,1.21,0,0,1,207.57,197.66Z"/><path d="M129.15,132c.81,0,1.63,0,2.44,0l-.65,2.59-1.16-.09-1.16.07C128.8,133.69,129,132.85,129.15,132Z"/><path d="M134.14,177.06l-1-.21-1,.07-1-2.42,2.77.05.75-.28Z"/><path d="M276.68,166.51l3.09.16-1.37,2.38-1,0-1,.1Z"/><path d="M133.61,129.22l-1.28-.21-1.29.17c.31-.8.63-1.6,1-2.39h2.95Z"/><path class="cls-55" d="M96.79,171.2l2.9-2Z"/><path class="cls-60" d="M209,123.69l-3.12,2.67Z"/><path class="cls-60" d="M204.31,126.46l-3.1-2Z"/><path d="M263.35,238.11l2.89.12-2.35,2Z"/><path d="M281.12,121.43l2.76,0c.08.86.15,1.71.23,2.57l-.82-.2-.84.11Z"/><path class="cls-60" d="M211.57,120.71l.33,3.27-2.94-.2Z"/><path d="M139.77,122c0-1,0-2.07-.05-3.11a2,2,0,0,1,2.37-.86l.21,2.72Z"/><path d="M276,113.78a4.73,4.73,0,0,0,.07,2.61c-1.06-.84-2.12-1.68-3.17-2.53l.63-.59Z"/><path d="M228.37,113.67c.3.77.61,1.54.92,2.3l-1-.24-1,.12A2.71,2.71,0,0,1,228.37,113.67Z"/><path class="cls-57" d="M270.77,111c1.65-.08,3,.2,2.8,2.31l-.63.58a1.45,1.45,0,0,1-2.15-.65C270.79,112.46,270.79,111.72,270.77,111Z"/><path d="M270.77,111c0,.75,0,1.49,0,2.24l-2.51-.56a2.25,2.25,0,0,0-.11-2.12Z"/><path class="cls-61" d="M83.11,222.33l-1.21-.06-1.13.42c-2.81-.76-6.4.37-8.06-3.22l.82-.7a2.12,2.12,0,0,0,1.76-1.37c3.8,1.39,7.74,3.3,7.88-3.55.08-4.3.54-8.58.83-12.87a17.94,17.94,0,0,0,2.07-.11l.73.69c-2.14,6.71,5.58,6.05,7.45,9.76l-1,.53c-5.68-.55-8.15,1.86-7.12,7.54Z"/><path class="cls-62" d="M86.15,219.39c-1-5.68,1.44-8.09,7.13-7.54a2.34,2.34,0,0,0,1.21,2.24q1.1,4,2.18,8C93,221.75,89.19,222.09,86.15,219.39Z"/><path d="M97.54,209c.33.76.65,1.52,1,2.29-.6,0-1.2.1-1.79.17l-.23-.28A2.48,2.48,0,0,1,97.54,209Z"/><path d="M94.49,214.09a2.34,2.34,0,0,1-1.21-2.24l1-.53,1.11-.13h1.13l.23.28C96,212.34,95.23,213.22,94.49,214.09Z"/><path class="cls-63" d="M109.91,224.61c-.76-.77-1.53-1.54-2.29-2.32C109.55,221.93,110.94,222.09,109.91,224.61Z"/><path class="cls-64" d="M356.47,139.91c5.32.92,1.28,5.55,3.16,7.84a11.47,11.47,0,0,0-.32,2.18c0,1-.07,2-.1,3-8.8.25-5.3-5.77-5.23-10Z"/><path class="cls-65" d="M339.66,150.33c.34-1.46.69-2.93,1-4.4,8.42,2.74,4.26,7.84,1.08,10.75-3.61,3.29-3.78-.79-3.93-3.37Z"/><path class="cls-66" d="M327.16,161.2l-5.73-2.77c.16-4,.5-7.87,4.81-9.85l0-.09a2.1,2.1,0,0,0,1.3,1.9c-.07,1.86-.13,3.71-.2,5.56a1.74,1.74,0,0,0,.13,2.45Z"/><path class="cls-67" d="M339,179.88c-.26,2.28-1,4.64-3.67,4.37-1.12-.11-2.84-2.34-2.81-3.56a5,5,0,0,1,2.95-3.61C337.22,176.52,338.87,177.66,339,179.88Z"/><path class="cls-68" d="M358.88,161c-2.19-.1-4.83,1-5.69-2.43-.3-1.23-.94-2.3,1-2.41,3.69-.2,3.49,2.94,4.4,5.12Z"/><path class="cls-63" d="M365.1,161.15l-.32,2.69c-3.79,2.77-5.59,1.49-5.89-2.84l-.32.28c5,.68,2.68-3.5,3.66-5.49l.83,0h.82c.39,1,.79,2,1.18,3A3.34,3.34,0,0,0,365.1,161.15Z"/><path class="cls-69" d="M348.38,178l-3.24,4.16c-.72-.7-2-1.38-2.05-2.1a21.1,21.1,0,0,1,.85-4.76Z"/><path class="cls-70" d="M327.32,156c.07-1.85.13-3.7.2-5.56l1.11,0,1.1,0,2.6,2.8,2.61-.22c-.58,3.07-3.12,2.89-5.38,3.18A3.82,3.82,0,0,0,327.32,156Z"/><path class="cls-71" d="M351.42,174.67c.06-2.16,1.62-3.06,3.1-2.06,2.28,1.56,1.62,3.28-.86,4.3Z"/><path class="cls-72" d="M327.21,162.89A2,2,0,0,0,327,161c2,.37,4.44-.23,5.46,2.37l-.24,3.31Z"/><path class="cls-73" d="M348.72,164.74c-.1,1.95-.14,3.95-2.86,4.13l.15.16q.18-4,.37-7.95a14.49,14.49,0,0,0,2.61-.42l-.13-.06C348.81,162,348.77,163.36,348.72,164.74Z"/><path class="cls-8" d="M332.2,166.67l.24-3.31c1.87.34,3.36,1.18,2.47,3.3C334.31,168.09,333.11,168.1,332.2,166.67Z"/><path class="cls-74" d="M342.71,164.7l-1.42.78a11.14,11.14,0,0,1-.14-2.07c0-.3.49-.56.76-.84C342.18,163.27,342.44,164,342.71,164.7Z"/><path class="cls-75" d="M334.94,153l-2.61.22,1.84-4.81a3.1,3.1,0,0,0,1.14,2.21A21,21,0,0,0,334.94,153Z"/><path class="cls-8" d="M363.88,155.75h-.82l-.83,0c-.2-.87-.4-1.74-.61-2.61l2.72.11A3.28,3.28,0,0,1,363.88,155.75Z"/><path class="cls-8" d="M359.21,152.94c0-1,.07-2,.1-3,1.41.75,3.18,1.24,2.58,3.46Z"/><path class="cls-76" d="M339.66,150.33l-1.82,3c-.06-.93-.11-1.87-.16-2.81C338.34,150.43,339,150.37,339.66,150.33Z"/><path d="M327.32,156a3.82,3.82,0,0,1,2.24.2l-2.11,2.25A1.74,1.74,0,0,1,327.32,156Z"/><path class="cls-76" d="M335.31,150.59a3.1,3.1,0,0,1-1.14-2.21l3.63,2.21-1.25,0Z"/><path class="cls-77" d="M349,160.66a14.49,14.49,0,0,1-2.61.42l.84-2.12Z"/><path class="cls-35" d="M356.47,139.91l-2.49,3-.18-3A14,14,0,0,1,356.47,139.91Z"/><path class="cls-77" d="M348.72,164.74c0-1.38.09-2.76.14-4.14C351.64,162.07,350.63,163.42,348.72,164.74Z"/><path class="cls-78" d="M351.42,174.67l2.24,2.24C351.6,177.44,351.45,176.11,351.42,174.67Z"/><path class="cls-79" d="M345.86,168.87a4.44,4.44,0,0,1-.46,1c-.13.16-.5.13-.76.19L346,169Z"/><path class="cls-80" d="M268.28,112.65l2.51.56a1.45,1.45,0,0,0,2.15.65c1.05.85,2.11,1.69,3.17,2.53a7.16,7.16,0,0,0,5,5l1.33,2.51c3.25,7.78.76,16,1.79,23.93q-2.55,6.66-5.08,13.33a4.75,4.75,0,0,0-.66,2.5c-.61.93-1.21,1.87-1.82,2.81l-.3,2.62a4.91,4.91,0,0,0-2.81,5.27c-3.08.54-3.85,2.77-4,5.42-2.05-.14-3.74.25-4.05,2.68l-1.27-.16-1.29.07-2.84,2-2.54,1.41c-3.41,1.93-8.13.23-10.91,3.88l-15.92.32-11-4.42.28-.82-3.13-2.26c-5.08-2.63.28-5.44-.14-8.15,2.39-4.78-.44-5.58-4.33-5.56-10-1.61-20.37-4.31-20.21,11.87,0,2.37-4.58,4.78-7.05,7.17l-1.29-.19-1.3,0-5.45,2.07-2.73,1-13.24.26-10.45-1.65L147.61,188l-2.64-.23c-1-2.59-3.07-3-5.48-2.69.14-1.9-.34-3.18-2.67-2.6l-.12-4.89-2.06-3.34-.75.28a4,4,0,0,0,.22-2.44l-1.82-3q-1.48-3-3-6c.15-9.53-1.78-19.17,1.61-28.52l.65-2.59,2-2.74,1.33-2.44,4.83-4.74,2.53-1.25c7.79-3.36,16-1.59,24.1-2.13l16.14,10.28c10.34-4.87,10.34-4.87,20.17.93,2.43,2,4.76,2.21,6.95-.35l2.54-2.33,2.17-3.21c7.65,1.79,14.19,1.35,16.39-7.91l8.05-5.21,5.08-.62,13.61,0Zm-40.73,35.83c.45,9.44,2.21,18,14.36,18.26,11.84.26,24.33-12.41,23.5-24.1-.75-10.53-7.29-15.66-17.6-16C233.91,126.27,227.38,133.45,227.55,148.48Zm-67.08-14.07c-13.19.59-17.19,8.54-16.53,18.76s4.18,19.53,16.9,19.89c12,.34,24-10.81,22.33-21.39C181.1,139,170.58,136,160.47,134.41Z"/><path class="cls-59" d="M214.44,174.31a18.52,18.52,0,0,0-5.18,10.7c-3.37,2.05-3.26,11-10.58,5.21-.78-8.81-4.9-19.46,10.75-19.28Z"/><path d="M214.44,174.31l-5-3.37,3-2.13c3.89,0,6.72.78,4.33,5.56l-1.15-.07Z"/><path class="cls-81" d="M84,201c-.29,4.29-.75,8.57-.83,12.87-.14,6.85-4.08,4.94-7.88,3.55L73,215.94c4.37-5.79.73-10.31-2.41-14.91l2.28-2.41c3.65-2.06,3.78-4.13,0-6.24L72,187.45a6.32,6.32,0,0,0,.92-2.41L80,182.71C85.67,187.88,80.16,195.43,84,201Z"/><path class="cls-82" d="M64.4,205.43c-4,1-4.9-1.66-5.61-4.58.17-.87.33-1.74.5-2.6l5-3,3.14,3.05,0,0C64.58,199.9,64.29,202.58,64.4,205.43Z"/><path class="cls-83" d="M49,205.25c0-1.43-.05-2.85-.08-4.27l5-2.72.35,6C53,207,50.93,205.6,49,205.25Z"/><path class="cls-84" d="M67.44,198.34l-3.14-3.05c2.27-2.69,4.41-3.28,6.31.37-.24.9-.47,1.8-.7,2.7l.19-.22Z"/><path class="cls-84" d="M64.4,205.43c-.11-2.85.18-5.53,3.06-7.12C66.22,200.59,68.22,204.23,64.4,205.43Z"/><path class="cls-85" d="M54.33,204.23l-.35-6,2.79-2.59-.21-.21.52,2.88a3.51,3.51,0,0,0-.19,2.53Z"/><path d="M56.89,200.87a3.51,3.51,0,0,1,.19-2.53c.74,0,1.47,0,2.21-.09-.17.86-.33,1.73-.5,2.6l-.95,0Z"/><path class="cls-84" d="M72.84,198.62,70.56,201c-.15-1-.3-1.93-.46-2.89l-.19.22Z"/><path class="cls-86" d="M66.84,211.29l1.24-2.09,1.38,1.3-2,1.24Z"/><path class="cls-87" d="M67.48,211.74l-.94,1.82-1.35-1.1,1.65-1.17Z"/><path d="M73,215.94l2.32,1.46a2.12,2.12,0,0,1-1.76,1.37C73.34,217.83,73.16,216.88,73,215.94Z"/><path class="cls-60" d="M209.66,129.52c-2.19,2.56-4.52,2.37-6.95.35Z"/><path class="cls-60" d="M214.37,124l-2.17,3.21-.27-3.17C212.75,124,213.56,124,214.37,124Z"/><path class="cls-54" d="M161.15,191l13.24-.26C170,194.06,165.63,193.9,161.15,191Z"/><path class="cls-8" d="M177.12,189.77l5.45-2.07C181.32,189.86,179.39,190.24,177.12,189.77Z"/><path class="cls-88" d="M62.85,176.71c-1.52-2.92.6-4.79,2-6.85,8-2.85,3.1,6.52,7.16,7.41a5.21,5.21,0,0,1-.08,2.45l-3.22.32Z"/><path class="cls-89" d="M72,179.72a5.21,5.21,0,0,0,.08-2.45l2.73-.1c2.74,1.82,5.34.79,8-.34.82-.06,1.63-.15,2.44-.26l.89.43-2.52,5.32-3.53.39L72.87,185l-1.77.34L70,185l.22-2.66-.14.19C71.7,182.23,72.72,181.56,72,179.72Z"/><path class="cls-90" d="M83.54,182.32,86.06,177c3.67-1.23,5.58,1.32,7.67,3.51.53,3.36,1,6.72,1.58,10.08,1.39,5.16,1.12,9-6,7.33C81.52,194.86,94.38,184.28,83.54,182.32Z"/><path class="cls-91" d="M83.54,182.32c10.84,2-2,12.54,5.79,15.6l-3.26,3A17.94,17.94,0,0,1,84,201c-3.84-5.55,1.67-13.1-4-18.27Z"/><path class="cls-92" d="M96.49,211.19H95.36l-1.11.13c-1.87-3.71-9.59-3-7.45-9.76,3.65-.54,7.38-1.52,10.26,1.95l.48,5.5A2.48,2.48,0,0,0,96.49,211.19Z"/><path d="M85.17,176.57c-.81.11-1.62.2-2.44.26l3.32-2.62A6,6,0,0,1,85.17,176.57Z"/><path class="cls-8" d="M216.89,182.52l3.13,2.26Z"/><path class="cls-93" d="M50.89,186.82a6.73,6.73,0,0,1,.4-1.83c5.14-1.76.08-3.53,0-5.29l.13-5-.33-.83c4-1.86,7.6-2.66,8.82,3.14,2.1,3.25,1.56,6-1.53,8.36l-1.79,4.86v.06l-3.38.41c-.71,0-1.41,0-2.11.08l.3-.7Z"/><path class="cls-94" d="M58.38,185.35C61.47,183,62,180.24,59.91,177l2.94-.28L68.76,180l1.34,2.48.14-.19-2.74.37L61.71,185A2.38,2.38,0,0,1,60,184.9l-.63.79Z"/><path class="cls-27" d="M329.73,150.39l-1.1,0-1.11,0a2.1,2.1,0,0,1-1.3-1.9Z"/><path class="cls-95" d="M56.77,195.67c-.08-.82-.15-1.65-.21-2.48s0-1.95,0-2.92v-.06l2.74.09,2.71.22-.26-.11c-1.23,2.2-1.17,5.71-5.22,5.05Z"/><path class="cls-96" d="M56.6,190.27c0,1,0,1.94,0,2.92l-3.34-2.52Z"/><path class="cls-97" d="M363.88,155.75a3.28,3.28,0,0,0,.46-2.46l2.9-.12-2.18,5.57C364.67,157.74,364.27,156.75,363.88,155.75Z"/><path d="M51.29,179.7c.08,1.76,5.14,3.53,0,5.29-.93-1.73-1.86-3.45-2.78-5.18l.24-.24C49.59,179.6,50.44,179.65,51.29,179.7Z"/><path class="cls-96" d="M50.89,186.82l.52,3.24C48.36,189.43,49.09,188.21,50.89,186.82Z"/><path class="cls-8" d="M132.29,169.08l1.82,3Z"/><path class="cls-8" d="M51.29,179.7c-.85,0-1.7-.1-2.54-.13.21-2-.57-4.52,2.67-4.89C51.38,176.35,51.33,178,51.29,179.7Z"/><path class="cls-8" d="M134.64,174.27l2.06,3.34a9,9,0,0,0-2.56-.55C134.31,176.13,134.47,175.2,134.64,174.27Z"/><path class="cls-8" d="M260.1,184.41l2.84-2c0,.91,0,1.81,0,2.72Z"/><path class="cls-98" d="M227.54,148.48c-.16-15,6.37-22.21,20.27-21.8,10.31.3,16.85,5.43,17.6,16,.83,11.69-11.66,24.36-23.5,24.1C229.76,166.48,228,157.92,227.54,148.48Zm20.36-14c-8.35,1-13.85,5.47-14.6,14.95-.53,6.75,3.77,10.87,9.19,10.51,8.92-.6,16.24-5.59,17.25-15.3C260.5,137.39,255.15,134.91,247.9,134.44Z"/><path class="cls-98" d="M160.47,134.41c10.11,1.56,20.63,4.56,22.7,17.26,1.72,10.58-10.29,21.73-22.33,21.39-12.72-.36-16.24-9.79-16.9-19.89S147.28,135,160.47,134.41ZM150,150.88c.29,8.86.07,16.19,9.54,16.22,8.77,0,14-5.25,14.47-13.71.37-7.32-3.7-12.86-11.58-13.11C154.24,140,149,143.85,150,150.88Z"/><path class="cls-54" d="M56.56,195.46c4,.66,4-2.85,5.22-5.05,2.06-1.19,6,.54,6-3.87L70,185l1.07.38a1.75,1.75,0,0,0,.86,2.08l.93,4.93c-.76,1.09-1.52,2.18-2.27,3.28-1.9-3.65-4-3.06-6.31-.37l-5,3c-.74.05-1.47.08-2.21.09C56.91,197.38,56.73,196.42,56.56,195.46Z"/><path d="M70.61,195.66c.75-1.1,1.51-2.19,2.27-3.28,3.74,2.11,3.61,4.18,0,6.24l-2.93-.26C70.14,197.46,70.37,196.56,70.61,195.66Z"/><path d="M72,187.45a1.75,1.75,0,0,1-.86-2.08c.6-.1,1.19-.21,1.78-.33A6.32,6.32,0,0,1,72,187.45Z"/><path class="cls-99" d="M70.1,182.52,68.76,180l3.21-.32C72.72,181.56,71.7,182.23,70.1,182.52Z"/><path class="cls-99" d="M70,185l-2.27,1.55c-.08-1.28-.16-2.56-.25-3.84l2.74-.37C70.16,183.21,70.09,184.1,70,185Z"/><path class="cls-96" d="M59.33,190.3l-2.74-.09q.9-2.43,1.79-4.86l1,.34.63-.79Q59.64,187.6,59.33,190.3Z"/><path class="cls-100" d="M67.5,182.7c.09,1.28.17,2.56.25,3.84.08,4.41-3.91,2.68-6,3.87l.26.11L61.71,185Z"/><path d="M61.71,185l.33,5.56-2.71-.22q.31-2.7.64-5.4A2.38,2.38,0,0,0,61.71,185Z"/><path class="cls-101" d="M247.9,134.44c7.25.47,12.6,2.95,11.84,10.16-1,9.71-8.33,14.7-17.25,15.3-5.42.36-9.72-3.76-9.19-10.51C234.05,139.91,239.55,135.48,247.9,134.44Zm-4.32,7.88c-1.62.59-4.31,1.53-4.1,4.78.19,2.92,1.89,4.75,5.29,4.22,2.83-.44,5.15-1.23,5-4.73S247.8,142,243.58,142.32Z"/><path class="cls-102" d="M150,150.88c-1-7,4.23-10.86,12.43-10.6,7.88.25,11.95,5.79,11.58,13.11-.42,8.46-5.7,13.74-14.47,13.71C150.08,167.07,150.3,159.74,150,150.88Zm18.79,4.82c-.86-3-1.52-6.43-4.8-7.06-4.21-.81-6.36,2.33-6.78,6a4.31,4.31,0,0,0,4.73,4.89C164.63,159.36,168.19,159.81,168.8,155.7Z"/><path class="cls-34" d="M243.58,142.32c4.22-.33,6.11.87,6.22,4.27s-2.2,4.29-5,4.73c-3.4.53-5.1-1.3-5.29-4.22C239.27,143.85,242,142.91,243.58,142.32Z"/><path class="cls-42" d="M168.8,155.7c-.61,4.11-4.17,3.66-6.85,3.78a4.31,4.31,0,0,1-4.73-4.89c.42-3.62,2.57-6.76,6.78-6C167.28,149.27,167.94,152.72,168.8,155.7Z"/></g></g></svg>